<svg xmlns="http://www.w3.org/2000/svg" viewBox="0 0 153.95 200.95"><defs><style>.cls-1{fill:#8b8b8c;stroke:#000;stroke-miterlimit:10;stroke-width:16px;}.cls-2{fill:#189a38;}.cls-3{fill:#f38f1a;}</style></defs><g id="Layer_2" data-name="Layer 2"><g id="Layer_3" data-name="Layer 3"><polygon class="cls-1" points="110.4 41.54 112.63 33.41 142.25 89.32 135.8 20.23 98.19 9.15 79.48 31.3 79.58 31.87 78.6 31.87 78.5 27.99 51.13 11.55 8.57 32.71 16.33 101.83 39.28 39.18 40.8 41.65 40.52 41.76 36.16 56.8 53.97 121.02 77.07 178.56 97.22 123.13 115.29 56.8 110.94 41.76 110.4 41.54"/><polygon class="cls-2" points="78.65 29.72 97.88 9.15 135.48 20.23 141.94 89.32 113.19 37.61 104.72 61.19 82.69 52.4 78.65 29.72"/><polygon class="cls-2" points="78.65 29.72 50.82 11.55 8.26 32.71 16.02 101.83 38.97 39.18 54.3 64.16 84.51 51.74 78.65 29.72"/><polygon class="cls-3" points="110.62 45.21 86.89 35.57 75.41 35.57 63.94 35.57 40.2 45.21 35.85 59.86 53.66 122.47 76.75 178.56 96.91 124.52 114.97 59.86 110.62 45.21"/></g></g></svg>